<svg id="logo" viewBox="0 0 173 64" fill="none" xmlns="http://www.w3.org/2000/svg">
    <path d="M10.7691 29.7986L7.68147 18.4876H0V36.6677H4.71824V24.1562L8.38216 36.6677H13.0775L16.6923 24.081V36.6677H21.4105V18.4876H13.8044L10.7691 29.7986Z" fill="white"/>
    <path d="M37.5004 31.2509L37.5266 28.6669C37.5266 28.6276 37.5266 28.5851 37.5266 28.5458C37.5266 24.1267 34.7795 22.6973 30.9485 22.6973C26.4792 22.6973 24.2232 25.1309 23.9972 27.6888H28.316C28.4666 26.5342 29.3442 25.9585 30.6015 25.9585C31.682 25.9585 32.6086 26.2594 32.6086 27.7379V28.1141C26.9114 28.4902 23.6731 29.8183 23.6731 32.9551C23.6731 35.3626 25.857 36.9915 28.4928 36.9915C30.4017 36.9915 32.0815 36.3897 33.0867 34.9112V36.6677H37.7558C37.579 35.392 37.5004 33.4032 37.5004 31.8692C37.4971 31.6533 37.4971 31.4472 37.5004 31.2509ZM32.7821 31.0252C32.7821 33.0827 31.6787 33.6322 30.3723 33.6322C29.1935 33.6322 28.7155 32.9813 28.7155 32.4023C28.7155 31.2248 30.1202 30.7734 32.7821 30.6229V31.0252Z" fill="white"/>
    <path d="M103.674 18.4876H98.6542V22.0497H103.674V18.4876Z" fill="white"/>
    <path d="M103.674 23.1782H98.6542V36.6677H103.674V23.1782Z" fill="white"/>
    <path d="M113.487 28.294L111.728 27.9669C110.825 27.8164 110.674 27.4403 110.674 27.1884C110.674 26.8875 111.077 26.6127 111.928 26.6127C113.634 26.6127 115.468 27.2146 116.695 27.715L118.303 24.1791C117.173 23.5772 114.865 22.8249 112.229 22.8249C108.739 22.8249 105.805 24.3557 105.805 27.1393C105.805 29.6972 107.789 30.8748 110.625 31.3785L112.056 31.6533C113.136 31.8528 113.611 32.0294 113.611 32.4808C113.611 32.9322 112.783 33.1579 111.853 33.1579C109.869 33.1579 108.114 32.4547 106.882 31.7776L105.026 35.2644C106.532 36.1934 108.742 36.9948 112.079 36.9948C116.021 36.9948 118.529 35.3887 118.529 32.2551C118.532 29.6972 116.424 28.8435 113.487 28.294Z" fill="white"/>
    <path d="M129.226 22.8772C127.393 22.8772 125.939 23.6034 125.035 24.9347V18.4908H120.016V36.671H125.035V29.622C125.035 27.6659 125.837 26.9136 127.068 26.9136C128.548 26.9136 128.699 28.1173 128.699 29.2458V36.6677H133.718V28.2187C133.718 24.9085 132.589 22.8772 129.226 22.8772Z" fill="white"/>
    <path d="M140.797 23.1782H135.778V36.6677H140.797V23.1782Z" fill="white"/>
    <path d="M140.797 18.4876H135.778V22.0497H140.797V18.4876Z" fill="white"/>
    <path d="M152.343 22.8772C150.509 22.8772 149.055 23.6034 148.151 24.9347V23.1782H143.132V36.6677H148.151V29.5958C148.151 27.6398 148.954 26.8874 150.185 26.8874C151.665 26.8874 151.815 28.0912 151.815 29.2197V36.6677H156.835V28.2187C156.835 24.9085 155.705 22.8772 152.343 22.8772Z" fill="white"/>
    <path d="M167.98 23.1782V24.8071C167.378 23.7277 165.898 22.8772 163.914 22.8772C160.901 22.8772 158.017 24.8594 158.017 29.5206C158.017 34.185 160.905 36.2163 163.914 36.2163C165.898 36.2163 167.378 35.2383 167.98 34.2602V35.6144C167.98 37.5705 166.877 38.2737 165.446 38.2737C164.117 38.2737 163.488 37.7471 163.338 36.9948H158.695C159.271 39.7293 161.432 41.3844 165.499 41.3844C169.441 41.3844 173.003 39.5298 173.003 34.6135V23.1782H167.98ZM165.721 32.4547C164.29 32.4547 163.262 31.4505 163.262 29.5206C163.262 27.6136 164.29 26.6127 165.721 26.6127C167.126 26.6127 168.157 27.5155 168.157 29.5206C168.157 31.5519 167.126 32.4547 165.721 32.4547Z" fill="white"/>
    <path d="M84.0967 30.3809C81.0713 27.9701 78.5337 25.8865 73.1344 21.51C77.0537 29.9 80.2396 36.7233 84.2441 45.2965C84.7352 46.2255 85.0954 46.9059 85.6225 47.9068C84.8105 47.2133 84.2179 46.7031 83.3436 45.9573C76.0092 40.1382 68.1608 33.2233 64.2709 27.7543C69.6047 22.1707 84.6959 6.36533 90.773 0C79.4472 5.77655 63.0398 13.5844 53.0238 23.1782H48.8785L46.5931 26.1384L44.3829 23.1782H38.7348L43.7543 29.8477L38.5383 36.6677H44.062L46.4981 33.4818L48.908 36.6677H53.9045C72.4566 53.9679 89.568 61.6678 96.909 64C97.0694 62.1225 97.2626 59.7444 97.2626 56.4342C97.2626 47.6876 95.8514 41.6199 95.3635 39.0882C95.3602 39.0882 93.0191 37.3546 89.3454 34.5023V29.7986H96.8238V25.2847H89.3454V22.9786H97.3019V18.4876H84.1V30.3809H84.0967ZM92.6295 40.8186C93.8934 46.9386 94.2339 52.3815 94.2339 56.3132C94.2339 57.4777 94.2044 58.6225 94.1455 59.7346C84.3161 55.9174 67.7253 46.7161 51.1869 29.7888C56.9889 21.2417 78.3765 9.26996 78.3864 9.26342L73.8187 13.3816C69.2969 18.118 64.5034 23.1389 60.6889 27.1328L60.4302 27.4043L60.6168 27.7281C67.2767 39.3008 91.7945 55.5412 91.7945 55.5412C91.7945 55.5412 84.2506 38.2083 82.3679 34.1719L80.3738 30.7047C84.1458 33.8514 89.3912 38.205 92.6295 40.8186Z" fill="white"/>
</svg>