<?xml version="1.0" encoding="utf-8"?><svg xmlns="http://www.w3.org/2000/svg" xmlns:xlink="http://www.w3.org/1999/xlink"><symbol viewBox="0 0 96.124 96.123" id="facebook" xmlns="http://www.w3.org/2000/svg"><path d="M72.089.02L59.624 0C45.62 0 36.57 9.285 36.57 23.656v10.907H24.037a1.96 1.96 0 00-1.96 1.961v15.803a1.96 1.96 0 001.96 1.96H36.57v39.876a1.96 1.96 0 001.96 1.96h16.352a1.96 1.96 0 001.96-1.96V54.287h14.654a1.96 1.96 0 001.96-1.96l.006-15.803a1.963 1.963 0 00-1.961-1.961H56.842v-9.246c0-4.444 1.059-6.7 6.848-6.7l8.397-.003a1.96 1.96 0 001.959-1.96V1.98A1.96 1.96 0 0072.089.02z"/></symbol><symbol viewBox="0 0 21 21" id="instagram" xmlns="http://www.w3.org/2000/svg"><path d="M15 10.5c0 2.489-2.011 4.5-4.5 4.5A4.496 4.496 0 016 10.5C6 8.011 8.011 6 10.5 6S15 8.011 15 10.5z"/><path d="M20.469 2.944a3.955 3.955 0 00-.958-1.472A3.953 3.953 0 0018.04.514C17.587.34 16.908.13 15.663.07 14.313.017 13.913 0 10.49 0 7.078 0 6.67.009 5.32.078 4.075.131 3.396.34 2.943.514a3.953 3.953 0 00-1.472.958 3.97 3.97 0 00-.957 1.472C.34 3.397.13 4.076.07 5.322.017 6.672 0 7.082 0 10.496c0 3.423.017 3.823.078 5.173.061 1.246.262 1.925.444 2.378.21.558.531 1.063.958 1.472.41.427.914.75 1.471.958.453.175 1.132.384 2.377.445 1.35.06 1.75.078 5.172.078 3.422 0 3.822-.009 5.172-.078 1.245-.061 1.924-.262 2.377-.445a4.227 4.227 0 002.429-2.43c.174-.453.383-1.132.444-2.378.06-1.35.078-1.759.078-5.173 0-3.423-.009-3.824-.078-5.174-.07-1.246-.279-1.925-.453-2.378zM10.49 17.072a6.575 6.575 0 01-6.573-6.576 6.574 6.574 0 1113.147 0 6.575 6.575 0 01-6.574 6.576zM17.326 5.2a1.535 1.535 0 01-1.533-1.533c0-.845.688-1.533 1.533-1.533.844 0 1.532.688 1.532 1.533S18.17 5.2 17.326 5.2z"/></symbol><symbol viewBox="0 0 95.481 95.481" id="ok" xmlns="http://www.w3.org/2000/svg"><path d="M43.041 67.254c-7.402-.772-14.076-2.595-19.79-7.064-.709-.556-1.441-1.092-2.088-1.713-2.501-2.402-2.753-5.153-.774-7.988 1.693-2.426 4.535-3.075 7.489-1.682.572.27 1.117.607 1.639.969 10.649 7.317 25.278 7.519 35.967.329 1.059-.812 2.191-1.474 3.503-1.812 2.551-.655 4.93.282 6.299 2.514 1.564 2.549 1.544 5.037-.383 7.016-2.956 3.034-6.511 5.229-10.461 6.761-3.735 1.448-7.826 2.177-11.875 2.661.611.665.899.992 1.281 1.376 5.498 5.524 11.02 11.025 16.5 16.566 1.867 1.888 2.257 4.229 1.229 6.425-1.124 2.4-3.64 3.979-6.107 3.81-1.563-.108-2.782-.886-3.865-1.977-4.149-4.175-8.376-8.273-12.441-12.527-1.183-1.237-1.752-1.003-2.796.071-4.174 4.297-8.416 8.528-12.683 12.735-1.916 1.889-4.196 2.229-6.418 1.15-2.362-1.145-3.865-3.556-3.749-5.979.08-1.639.886-2.891 2.011-4.014 5.441-5.433 10.867-10.88 16.295-16.322.359-.362.694-.746 1.217-1.305z"/><path d="M47.55 48.329c-13.205-.045-24.033-10.992-23.956-24.218C23.67 10.739 34.505-.037 47.84 0c13.362.036 24.087 10.967 24.02 24.478-.068 13.199-10.971 23.897-24.31 23.851zm12.001-24.186c-.023-6.567-5.253-11.795-11.807-11.801-6.609-.007-11.886 5.316-11.835 11.943.049 6.542 5.324 11.733 11.896 11.709 6.552-.023 11.768-5.285 11.746-11.851z"/></symbol><symbol viewBox="0 0 20 16" id="telegram" xmlns="http://www.w3.org/2000/svg"><path d="M17.943.407L1.69 6.674C.581 7.12.588 7.74 1.487 8.014L5.66 9.317l9.654-6.091c.457-.278.873-.128.53.176l-7.821 7.06H8.02h.002l-.288 4.301c.422 0 .608-.193.844-.421l2.027-1.971 4.216 3.114c.777.428 1.335.208 1.529-.72l2.767-13.042C19.4.587 18.684.073 17.942.408z"/></symbol><symbol viewBox="0 0 310 310" id="twitter" xmlns="http://www.w3.org/2000/svg"><path d="M302.973 57.388a117.512 117.512 0 01-14.993 5.463 66.276 66.276 0 0013.494-23.73 5 5 0 00-7.313-5.824 117.994 117.994 0 01-34.878 13.783c-12.381-12.098-29.197-18.983-46.581-18.983-36.695 0-66.549 29.853-66.549 66.547 0 2.89.183 5.764.545 8.598C101.163 99.244 58.83 76.863 29.76 41.204a5.001 5.001 0 00-8.196.642c-5.896 10.117-9.013 21.688-9.013 33.461 0 16.035 5.725 31.249 15.838 43.137a56.37 56.37 0 01-8.907-3.977 5 5 0 00-7.427 4.257c-.007.295-.007.59-.007.889 0 23.935 12.882 45.484 32.577 57.229a57.372 57.372 0 01-5.063-.735 4.998 4.998 0 00-5.699 6.437c7.29 22.76 26.059 39.501 48.749 44.605-18.819 11.787-40.34 17.961-62.932 17.961a120.4 120.4 0 01-14.095-.826 5 5 0 00-3.286 9.174c29.023 18.609 62.582 28.445 97.047 28.445 67.754 0 110.139-31.95 133.764-58.753 29.46-33.421 46.356-77.658 46.356-121.367 0-1.826-.028-3.67-.084-5.508 11.623-8.757 21.63-19.355 29.773-31.536a5 5 0 00-6.182-7.351z"/></symbol><symbol viewBox="0 0 22 23" id="viber" xmlns="http://www.w3.org/2000/svg"><path d="M10.737.5C9.075.5 4.962.675 2.775 2.775 1.2 4.263.587 6.537.5 9.25c-.175 4.287.787 7 2.362 8.4.35.263 1.225.963 2.888 1.488v2.187s0 .875.525 1.05c.087 0 .175.087.262.087.525 0 .963-.612 1.575-1.224.525-.613.963-1.05 1.225-1.488h1.925c1.663 0 5.775-.175 7.963-2.275 1.575-1.575 2.187-3.85 2.187-6.738.088-.437.088-.962.088-1.487-.088-3.237-1.05-5.425-2.363-6.65-.525-.438-2.8-2.1-7.7-2.1h-.7zm-.175 1.663h.788c4.637 0 6.387 1.487 6.562 1.662 1.05.875 1.663 2.8 1.75 5.337v.35c.088.525.088.963.088 1.226-.088 2.625-.613 4.375-1.663 5.512C16.25 17.913 12.4 18 11.35 18H9.687l-1.4 1.575-.875.963-.175.262c-.175.175-.437.525-.612.613v-3.938c-1.75-.438-2.45-1.05-2.625-1.225-1.225-1.05-1.925-3.588-1.75-7v-.875c.175-2.1.7-3.5 1.575-4.463 1.837-1.662 5.687-1.75 6.737-1.75zm-.087 1.925a.307.307 0 000 .612c3.237 0 6.037 2.188 6.037 6.3 0 .438.613.438.613 0 0-4.463-2.975-7-6.65-6.912zm-3.468.809a.766.766 0 00-.556.152c-.875.438-1.751 1.314-1.489 2.277 0 0 .175.787 1.138 2.449.525.787.962 1.487 1.4 2.012.437.613 1.137 1.313 1.837 1.838 1.4 1.137 3.588 2.275 4.55 2.538.875.262 1.838-.613 2.275-1.488a.835.835 0 00-.262-1.05c-.525-.525-1.4-1.137-2.013-1.488-.437-.262-.962-.087-1.137.175l-.438.526c-.175.262-.612.262-.612.262-2.888-.787-3.675-3.762-3.675-3.762s0-.35.262-.613l.525-.438c.263-.175.438-.7.175-1.137-.175-.263-.437-.788-.7-1.05-.262-.35-.787-.962-.787-.962a.842.842 0 00-.493-.241zm4.08.94c-.437-.087-.525.613-.087.613 2.45.175 3.85 1.837 3.762 3.937-.087.438.613.438.613 0 .087-2.45-1.488-4.462-4.288-4.55zM11.35 7.5c-.438-.088-.438.613 0 .613 1.05 0 1.575.612 1.575 1.662.087.438.7.438.7 0-.088-1.4-.875-2.275-2.275-2.275z"/></symbol><symbol viewBox="0 0 304.36 304.36" id="vk" xmlns="http://www.w3.org/2000/svg"><path d="M261.945 175.576c10.096 9.857 20.752 19.131 29.807 29.982 4 4.822 7.787 9.798 10.684 15.394 4.105 7.955.387 16.709-6.746 17.184l-44.34-.02c-11.436.949-20.559-3.655-28.23-11.474-6.139-6.253-11.824-12.908-17.727-19.372-2.42-2.642-4.953-5.128-7.979-7.093-6.053-3.929-11.307-2.726-14.766 3.587-3.523 6.421-4.322 13.531-4.668 20.687-.475 10.441-3.631 13.186-14.119 13.664-22.414 1.057-43.686-2.334-63.447-13.641-17.422-9.968-30.932-24.04-42.691-39.971-22.895-31.021-40.428-65.108-56.186-100.15C-2.01 76.458.584 72.22 9.295 72.07c14.465-.281 28.928-.261 43.41-.02 5.879.086 9.771 3.458 12.041 9.012 7.826 19.243 17.402 37.551 29.422 54.521 3.201 4.518 6.465 9.036 11.113 12.216 5.142 3.521 9.057 2.354 11.476-3.374 1.535-3.632 2.207-7.544 2.553-11.434 1.146-13.383 1.297-26.743-.713-40.079-1.234-8.323-5.922-13.711-14.227-15.286-4.238-.803-3.607-2.38-1.555-4.799 3.564-4.172 6.916-6.769 13.598-6.769h50.111c7.889 1.557 9.641 5.101 10.721 13.039l.043 55.663c-.086 3.073 1.535 12.192 7.07 14.226 4.43 1.448 7.35-2.096 10.008-4.905 11.998-12.734 20.561-27.783 28.211-43.366 3.395-6.852 6.314-13.968 9.143-21.078 2.096-5.276 5.385-7.872 11.328-7.757l48.229.043c1.43 0 2.877.021 4.262.258 8.127 1.385 10.354 4.881 7.844 12.817-3.955 12.451-11.65 22.827-19.174 33.251-8.043 11.129-16.645 21.877-24.621 33.072-7.328 10.223-6.746 15.376 2.357 24.255zm0 0" fill-rule="evenodd" clip-rule="evenodd"/></symbol><symbol viewBox="0 0 22 22" id="whatsup" xmlns="http://www.w3.org/2000/svg"><path d="M18.701 3.198A10.799 10.799 0 0010.991 0C4.988 0 .095 4.892.089 10.898c0 1.924.503 3.795 1.453 5.452L0 22l5.78-1.515c1.6.87 3.391 1.326 5.212 1.327h.005c6.006 0 10.898-4.893 10.904-10.904a10.86 10.86 0 00-3.201-7.71h.001zm-7.71 16.768a9.037 9.037 0 01-4.614-1.265l-.33-.198-3.429.9.916-3.346-.215-.345a9.02 9.02 0 01-1.384-4.82C1.935 5.908 6 1.84 10.997 1.84a9.02 9.02 0 016.408 2.655 9.016 9.016 0 012.65 6.407c-.005 5.004-4.07 9.064-9.063 9.064zm4.971-6.784c-.27-.136-1.608-.795-1.86-.888-.25-.09-.433-.136-.612.136-.183.27-.705.888-.862 1.066-.157.183-.319.203-.591.068-.271-.137-1.15-.423-2.19-1.354-.81-.722-1.354-1.616-1.516-1.886-.157-.273-.015-.418.121-.555.12-.12.271-.319.407-.475.138-.157.183-.273.272-.454.09-.184.047-.341-.02-.477-.069-.136-.612-1.48-.842-2.021-.22-.535-.444-.461-.612-.468-.156-.01-.34-.01-.522-.01a1.002 1.002 0 00-.728.34c-.25.272-.95.93-.95 2.274 0 1.344.977 2.635 1.114 2.818.135.183 1.917 2.931 4.652 4.114a14.98 14.98 0 001.552.574c.653.21 1.243.178 1.713.11.523-.08 1.61-.66 1.84-1.296.226-.638.226-1.183.157-1.297-.067-.115-.25-.183-.523-.319z"/></symbol><symbol viewBox="0 0 310 310" id="youtube" xmlns="http://www.w3.org/2000/svg"><path d="M297.917 64.645c-11.19-13.302-31.85-18.728-71.306-18.728H83.386c-40.359 0-61.369 5.776-72.517 19.938C0 79.663 0 100.008 0 128.166v53.669c0 54.551 12.896 82.248 83.386 82.248h143.226c34.216 0 53.176-4.788 65.442-16.527C304.633 235.518 310 215.863 310 181.835v-53.669c0-29.695-.841-50.16-12.083-63.521zm-98.896 97.765l-65.038 33.991a9.997 9.997 0 01-14.632-8.863v-67.764a10 10 0 0114.609-8.874l65.038 33.772a10 10 0 01.023 17.738z"/></symbol></svg>